<?xml version="1.0" standalone="no"?>
<!DOCTYPE svg PUBLIC "-//W3C//DTD SVG 20010904//EN"
 "http://www.w3.org/TR/2001/REC-SVG-20010904/DTD/svg10.dtd">
<svg version="1.0" xmlns="http://www.w3.org/2000/svg"
 width="234.000000pt" height="230.000000pt" viewBox="0 0 234.000000 230.000000"
 preserveAspectRatio="xMidYMid meet">

<g transform="translate(0.000000,230.000000) scale(0.100000,-0.100000)"
fill="#000000" stroke="none">
<path d="M1268 1730 l-28 -30 0 -505 0 -504 22 -21 c33 -30 91 -27 118 7 20
26 21 32 18 530 l-3 503 -30 25 c-40 32 -64 31 -97 -5z"/>
<path d="M596 1669 l-26 -20 0 -450 c0 -436 1 -450 20 -469 31 -31 93 -27 119
6 21 26 21 37 21 464 l0 437 -26 27 c-32 32 -72 34 -108 5z"/>
<path d="M1932 1587 c-22 -23 -22 -27 -22 -394 0 -340 1 -371 18 -386 39 -35
97 -30 129 12 9 12 12 109 13 379 l0 363 -25 24 c-32 33 -83 34 -113 2z"/>
<path d="M249 1438 l-29 -32 0 -209 0 -208 29 -32 c35 -37 87 -42 121 -12 19
17 20 29 20 250 0 229 0 232 -23 253 -35 33 -82 29 -118 -10z"/>
<path d="M1591 1404 c-20 -25 -21 -40 -21 -211 0 -182 0 -184 25 -208 30 -31
73 -32 109 -4 l26 20 0 195 c0 181 -1 195 -20 214 -31 31 -93 27 -119 -6z"/>
<path d="M921 1296 c-33 -18 -50 -53 -51 -103 -1 -119 164 -154 215 -46 38 78
-14 163 -98 163 -23 -1 -53 -7 -66 -14z"/>
</g>
</svg>
